<svg xmlns="http://www.w3.org/2000/svg" xmlns:xlink="http://www.w3.org/1999/xlink" contentStyleType="text/css" data-diagram-type="CLASS" height="816px" preserveAspectRatio="none" style="width:1014px;height:816px;background:#FFFFFF;" version="1.1" viewBox="0 0 1014 816" width="1014px" zoomAndPan="magnify"><defs><filter height="300%" id="fmir4ukov6b0t" width="300%" x="-1" y="-1"><feGaussianBlur result="blurOut" stdDeviation="2"/><feColorMatrix in="blurOut" result="blurOut2" type="matrix" values="0 0 0 0 0 0 0 0 0 0 0 0 0 0 0 0 0 0 .4 0"/><feOffset dx="4" dy="4" in="blurOut2" result="blurOut3"/><feBlend in="SourceGraphic" in2="blurOut3" mode="normal"/></filter></defs><g><!--class Customer--><g id="elem_Customer"><rect codeLine="4" fill="#FEFECE" filter="url(#fmir4ukov6b0t)" height="162.0781" id="Customer" style="stroke:#A80036;stroke-width:1;" width="290.0176" x="342" y="7"/><ellipse cx="448.7568" cy="23" fill="#ADD1B2" rx="11" ry="11" style="stroke:#A80036;stroke-width:1;"/><path d="M451.7256,28.6406 Q451.1475,28.9375 450.5068,29.0781 Q449.8662,29.2344 449.1631,29.2344 Q446.6631,29.2344 445.335,27.5938 Q444.0225,25.9375 444.0225,22.8125 Q444.0225,19.6875 445.335,18.0313 Q446.6631,16.375 449.1631,16.375 Q449.8662,16.375 450.5068,16.5313 Q451.1631,16.6875 451.7256,16.9844 L451.7256,19.7031 Q451.1006,19.125 450.5068,18.8594 Q449.9131,18.5781 449.2881,18.5781 Q447.9443,18.5781 447.2568,19.6563 Q446.5693,20.7188 446.5693,22.8125 Q446.5693,24.9063 447.2568,25.9844 Q447.9443,27.0469 449.2881,27.0469 Q449.9131,27.0469 450.5068,26.7813 Q451.1006,26.5 451.7256,25.9219 L451.7256,28.6406 Z " fill="#000000"/><text fill="#000000" font-family="sans-serif" font-size="14" lengthAdjust="spacing" textLength="68.0039" x="469.2568" y="27.8467">Customer</text><line style="stroke:#A80036;stroke-width:1;" x1="343" x2="631.0176" y1="39" y2="39"/><rect fill="transparent" height="6" style="stroke:#C82930;stroke-width:1;" width="6" x="350" y="49.6484"/><text fill="#000000" font-family="sans-serif" font-size="14" lengthAdjust="spacing" textLength="90.6514" x="362" y="55.9951">String name;</text><rect fill="transparent" height="6" style="stroke:#C82930;stroke-width:1;" width="6" x="350" y="65.9453"/><text fill="#000000" font-family="sans-serif" font-size="14" lengthAdjust="spacing" textLength="150.7666" x="362" y="72.292">List&lt;Rental&gt; rentals;</text><line style="stroke:#A80036;stroke-width:1;" x1="343" x2="631.0176" y1="79.5938" y2="79.5938"/><ellipse cx="353" cy="93.2422" fill="#84BE84" rx="3" ry="3" style="stroke:#038048;stroke-width:1;"/><text fill="#000000" font-family="sans-serif" font-size="14" lengthAdjust="spacing" textLength="164.8623" x="362" y="96.5889">Costumer(String name)</text><ellipse cx="353" cy="109.5391" fill="#84BE84" rx="3" ry="3" style="stroke:#038048;stroke-width:1;"/><text fill="#000000" font-family="sans-serif" font-size="14" lengthAdjust="spacing" textLength="207.3477" x="362" y="112.8857">void addRental(Rental rental)</text><ellipse cx="353" cy="125.8359" fill="#84BE84" rx="3" ry="3" style="stroke:#038048;stroke-width:1;"/><text fill="#000000" font-family="sans-serif" font-size="14" lengthAdjust="spacing" textLength="121.4473" x="362" y="129.1826">String getName()</text><ellipse cx="353" cy="142.1328" fill="#84BE84" rx="3" ry="3" style="stroke:#038048;stroke-width:1;"/><text fill="#000000" font-family="sans-serif" font-size="14" lengthAdjust="spacing" textLength="129.2334" x="362" y="145.4795">String statement()</text><rect fill="#F24D5C" height="6" style="stroke:#C82930;stroke-width:1;" width="6" x="350" y="155.4297"/><text fill="#000000" font-family="sans-serif" font-size="14" lengthAdjust="spacing" textLength="264.0176" x="362" y="161.7764">RentalSummary getRentalSummary()</text></g><!--class Rental--><g id="elem_Rental"><rect codeLine="14" fill="#FEFECE" filter="url(#fmir4ukov6b0t)" height="162.0781" id="Rental" style="stroke:#A80036;stroke-width:1;" width="285.8203" x="344" y="229"/><ellipse cx="460.0742" cy="245" fill="#ADD1B2" rx="11" ry="11" style="stroke:#A80036;stroke-width:1;"/><path d="M463.043,250.6406 Q462.4648,250.9375 461.8242,251.0781 Q461.1836,251.2344 460.4805,251.2344 Q457.9805,251.2344 456.6523,249.5938 Q455.3398,247.9375 455.3398,244.8125 Q455.3398,241.6875 456.6523,240.0313 Q457.9805,238.375 460.4805,238.375 Q461.1836,238.375 461.8242,238.5313 Q462.4805,238.6875 463.043,238.9844 L463.043,241.7031 Q462.418,241.125 461.8242,240.8594 Q461.2305,240.5781 460.6055,240.5781 Q459.2617,240.5781 458.5742,241.6563 Q457.8867,242.7188 457.8867,244.8125 Q457.8867,246.9063 458.5742,247.9844 Q459.2617,249.0469 460.6055,249.0469 Q461.2305,249.0469 461.8242,248.7813 Q462.418,248.5 463.043,247.9219 L463.043,250.6406 Z " fill="#000000"/><text fill="#000000" font-family="sans-serif" font-size="14" lengthAdjust="spacing" textLength="45.1719" x="480.5742" y="249.8467">Rental</text><line style="stroke:#A80036;stroke-width:1;" x1="345" x2="628.8203" y1="261" y2="261"/><rect fill="transparent" height="6" style="stroke:#C82930;stroke-width:1;" width="6" x="352" y="271.6484"/><text fill="#000000" font-family="sans-serif" font-size="14" lengthAdjust="spacing" textLength="93.5908" x="364" y="277.9951">Movie movie;</text><rect fill="transparent" height="6" style="stroke:#C82930;stroke-width:1;" width="6" x="352" y="287.9453"/><text fill="#000000" font-family="sans-serif" font-size="14" lengthAdjust="spacing" textLength="110.667" x="364" y="294.292">int daysRented;</text><line style="stroke:#A80036;stroke-width:1;" x1="345" x2="628.8203" y1="301.5938" y2="301.5938"/><ellipse cx="355" cy="315.2422" fill="#84BE84" rx="3" ry="3" style="stroke:#038048;stroke-width:1;"/><text fill="#000000" font-family="sans-serif" font-size="14" lengthAdjust="spacing" textLength="259.8203" x="364" y="318.5889">Rental(Movie movie, int daysRented)</text><ellipse cx="355" cy="331.5391" fill="#84BE84" rx="3" ry="3" style="stroke:#038048;stroke-width:1;"/><text fill="#000000" font-family="sans-serif" font-size="14" lengthAdjust="spacing" textLength="141.7568" x="364" y="334.8857">int getDaysRented()</text><ellipse cx="355" cy="347.8359" fill="#84BE84" rx="3" ry="3" style="stroke:#038048;stroke-width:1;"/><text fill="#000000" font-family="sans-serif" font-size="14" lengthAdjust="spacing" textLength="121.2285" x="364" y="351.1826">Movie getMovie()</text><ellipse cx="355" cy="364.1328" fill="#84BE84" rx="3" ry="3" style="stroke:#038048;stroke-width:1;"/><text fill="#000000" font-family="sans-serif" font-size="14" lengthAdjust="spacing" textLength="136.5615" x="364" y="367.4795">double getCharge()</text><ellipse cx="355" cy="380.4297" fill="#84BE84" rx="3" ry="3" style="stroke:#038048;stroke-width:1;"/><text fill="#000000" font-family="sans-serif" font-size="14" lengthAdjust="spacing" textLength="209.3984" x="364" y="383.7764">int getFrequentRenterPoints()</text></g><!--class Movie--><g id="elem_Movie"><rect codeLine="24" fill="#FEFECE" filter="url(#fmir4ukov6b0t)" height="145.7813" id="Movie" style="stroke:#A80036;stroke-width:1;" width="357.8916" x="308" y="451"/><ellipse cx="461.9795" cy="467" fill="#A9DCDF" rx="11" ry="11" style="stroke:#A80036;stroke-width:1;"/><path d="M462.0889,462.3438 L460.9326,467.4219 L463.2607,467.4219 L462.0889,462.3438 Z M460.6045,460.1094 L463.5889,460.1094 L466.9482,472.5 L464.4951,472.5 L463.7295,469.4375 L460.4482,469.4375 L459.6982,472.5 L457.2607,472.5 L460.6045,460.1094 Z " fill="#000000"/><text fill="#000000" font-family="sans-serif" font-size="14" font-style="italic" lengthAdjust="spacing" textLength="41.4326" x="482.4795" y="471.8467">Movie</text><line style="stroke:#A80036;stroke-width:1;" x1="309" x2="664.8916" y1="483" y2="483"/><ellipse cx="319" cy="496.6484" fill="transparent" rx="3" ry="3" style="stroke:#038048;stroke-width:1;"/><text fill="#000000" font-family="sans-serif" font-size="14" lengthAdjust="spacing" textLength="331.8916" x="328" y="499.9951">static final int FREQUENT_RENTER_POINTS = 1;</text><rect fill="transparent" height="6" style="stroke:#C82930;stroke-width:1;" width="6" x="316" y="509.9453"/><text fill="#000000" font-family="sans-serif" font-size="14" lengthAdjust="spacing" textLength="78.3193" x="328" y="516.292">String title;</text><line style="stroke:#A80036;stroke-width:1;" x1="309" x2="664.8916" y1="523.5938" y2="523.5938"/><ellipse cx="319" cy="537.2422" fill="#84BE84" rx="3" ry="3" style="stroke:#038048;stroke-width:1;"/><text fill="#000000" font-family="sans-serif" font-size="14" lengthAdjust="spacing" textLength="125.959" x="328" y="540.5889">Movie(String title)</text><ellipse cx="319" cy="553.5391" fill="#84BE84" rx="3" ry="3" style="stroke:#038048;stroke-width:1;"/><text fill="#000000" font-family="sans-serif" font-size="14" lengthAdjust="spacing" textLength="242.5117" x="328" y="556.8857">double getCharge(int daysRented)</text><ellipse cx="319" cy="569.8359" fill="#84BE84" rx="3" ry="3" style="stroke:#038048;stroke-width:1;"/><text fill="#000000" font-family="sans-serif" font-size="14" lengthAdjust="spacing" textLength="315.3486" x="328" y="573.1826">int getFrequentRenterPoints(int daysRented)</text><ellipse cx="319" cy="586.1328" fill="#84BE84" rx="3" ry="3" style="stroke:#038048;stroke-width:1;"/><text fill="#000000" font-family="sans-serif" font-size="14" lengthAdjust="spacing" textLength="110.5781" x="328" y="589.4795">String getTitle()</text></g><!--class RegularMovie--><g id="elem_RegularMovie"><rect codeLine="34" fill="#FEFECE" filter="url(#fmir4ukov6b0t)" height="129.4844" id="RegularMovie" style="stroke:#A80036;stroke-width:1;" width="308.1533" x="7" y="665.5"/><ellipse cx="108.9478" cy="681.5" fill="#ADD1B2" rx="11" ry="11" style="stroke:#A80036;stroke-width:1;"/><path d="M111.9165,687.1406 Q111.3384,687.4375 110.6978,687.5781 Q110.0571,687.7344 109.354,687.7344 Q106.854,687.7344 105.5259,686.0938 Q104.2134,684.4375 104.2134,681.3125 Q104.2134,678.1875 105.5259,676.5313 Q106.854,674.875 109.354,674.875 Q110.0571,674.875 110.6978,675.0313 Q111.354,675.1875 111.9165,675.4844 L111.9165,678.2031 Q111.2915,677.625 110.6978,677.3594 Q110.104,677.0781 109.479,677.0781 Q108.1353,677.0781 107.4478,678.1563 Q106.7603,679.2188 106.7603,681.3125 Q106.7603,683.4063 107.4478,684.4844 Q108.1353,685.5469 109.479,685.5469 Q110.104,685.5469 110.6978,685.2813 Q111.2915,685 111.9165,684.4219 L111.9165,687.1406 Z " fill="#000000"/><text fill="#000000" font-family="sans-serif" font-size="14" lengthAdjust="spacing" textLength="95.7578" x="129.4478" y="686.3467">RegularMovie</text><line style="stroke:#A80036;stroke-width:1;" x1="8" x2="314.1533" y1="697.5" y2="697.5"/><rect fill="transparent" height="6" style="stroke:#C82930;stroke-width:1;" width="6" x="15" y="708.1484"/><text fill="#000000" font-family="sans-serif" font-size="14" lengthAdjust="spacing" text-decoration="underline" textLength="159.0791" x="27" y="714.4951">double CHARGE = 2.0;</text><rect fill="transparent" height="6" style="stroke:#C82930;stroke-width:1;" width="6" x="15" y="724.4453"/><text fill="#000000" font-family="sans-serif" font-size="14" lengthAdjust="spacing" text-decoration="underline" textLength="209.8223" x="27" y="730.792">double EXTRA CHARGE = 1.5;</text><rect fill="transparent" height="6" style="stroke:#C82930;stroke-width:1;" width="6" x="15" y="740.7422"/><text fill="#000000" font-family="sans-serif" font-size="14" lengthAdjust="spacing" text-decoration="underline" textLength="282.1533" x="27" y="747.0889">final int DAYS RENTED THRESHOLD = 2;</text><line style="stroke:#A80036;stroke-width:1;" x1="8" x2="314.1533" y1="754.3906" y2="754.3906"/><ellipse cx="18" cy="768.0391" fill="#84BE84" rx="3" ry="3" style="stroke:#038048;stroke-width:1;"/><text fill="#000000" font-family="sans-serif" font-size="14" lengthAdjust="spacing" textLength="180.2842" x="27" y="771.3857">RegularMovie(String title)</text><ellipse cx="18" cy="784.3359" fill="#84BE84" rx="3" ry="3" style="stroke:#038048;stroke-width:1;"/><text fill="#000000" font-family="sans-serif" font-size="14" lengthAdjust="spacing" textLength="242.5117" x="27" y="787.6826">double getCharge(int daysRented)</text></g><!--class ChildrenMovie--><g id="elem_ChildrenMovie"><rect codeLine="41" fill="#FEFECE" filter="url(#fmir4ukov6b0t)" height="129.4844" id="ChildrenMovie" style="stroke:#A80036;stroke-width:1;" width="273.543" x="350" y="665.5"/><ellipse cx="432.5269" cy="681.5" fill="#ADD1B2" rx="11" ry="11" style="stroke:#A80036;stroke-width:1;"/><path d="M435.4956,687.1406 Q434.9175,687.4375 434.2769,687.5781 Q433.6362,687.7344 432.9331,687.7344 Q430.4331,687.7344 429.105,686.0938 Q427.7925,684.4375 427.7925,681.3125 Q427.7925,678.1875 429.105,676.5313 Q430.4331,674.875 432.9331,674.875 Q433.6362,674.875 434.2769,675.0313 Q434.9331,675.1875 435.4956,675.4844 L435.4956,678.2031 Q434.8706,677.625 434.2769,677.3594 Q433.6831,677.0781 433.0581,677.0781 Q431.7144,677.0781 431.0269,678.1563 Q430.3394,679.2188 430.3394,681.3125 Q430.3394,683.4063 431.0269,684.4844 Q431.7144,685.5469 433.0581,685.5469 Q433.6831,685.5469 434.2769,685.2813 Q434.8706,685 435.4956,684.4219 L435.4956,687.1406 Z " fill="#000000"/><text fill="#000000" font-family="sans-serif" font-size="14" lengthAdjust="spacing" textLength="99.9893" x="453.0269" y="686.3467">ChildrenMovie</text><line style="stroke:#A80036;stroke-width:1;" x1="351" x2="622.543" y1="697.5" y2="697.5"/><rect fill="transparent" height="6" style="stroke:#C82930;stroke-width:1;" width="6" x="358" y="708.1484"/><text fill="#000000" font-family="sans-serif" font-size="14" lengthAdjust="spacing" text-decoration="underline" textLength="159.0791" x="370" y="714.4951">double CHARGE = 1.5;</text><rect fill="transparent" height="6" style="stroke:#C82930;stroke-width:1;" width="6" x="358" y="724.4453"/><text fill="#000000" font-family="sans-serif" font-size="14" lengthAdjust="spacing" text-decoration="underline" textLength="209.8223" x="370" y="730.792">double EXTRA CHARGE = 1.5;</text><rect fill="transparent" height="6" style="stroke:#C82930;stroke-width:1;" width="6" x="358" y="740.7422"/><text fill="#000000" font-family="sans-serif" font-size="14" lengthAdjust="spacing" text-decoration="underline" textLength="247.543" x="370" y="747.0889">int DAYS RENTED THRESHOLD = 3;</text><line style="stroke:#A80036;stroke-width:1;" x1="351" x2="622.543" y1="754.3906" y2="754.3906"/><ellipse cx="361" cy="768.0391" fill="#84BE84" rx="3" ry="3" style="stroke:#038048;stroke-width:1;"/><text fill="#000000" font-family="sans-serif" font-size="14" lengthAdjust="spacing" textLength="184.5156" x="370" y="771.3857">ChildrenMovie(String title)</text><ellipse cx="361" cy="784.3359" fill="#84BE84" rx="3" ry="3" style="stroke:#038048;stroke-width:1;"/><text fill="#000000" font-family="sans-serif" font-size="14" lengthAdjust="spacing" textLength="242.5117" x="370" y="787.6826">double getCharge(int daysRented)</text></g><!--class NewReleaseMovie--><g id="elem_NewReleaseMovie"><rect codeLine="48" fill="#FEFECE" filter="url(#fmir4ukov6b0t)" height="145.7813" id="NewReleaseMovie" style="stroke:#A80036;stroke-width:1;" width="341.3486" x="659.5" y="657"/><ellipse cx="762.2749" cy="673" fill="#ADD1B2" rx="11" ry="11" style="stroke:#A80036;stroke-width:1;"/><path d="M765.2437,678.6406 Q764.6655,678.9375 764.0249,679.0781 Q763.3843,679.2344 762.6812,679.2344 Q760.1812,679.2344 758.853,677.5938 Q757.5405,675.9375 757.5405,672.8125 Q757.5405,669.6875 758.853,668.0313 Q760.1812,666.375 762.6812,666.375 Q763.3843,666.375 764.0249,666.5313 Q764.6812,666.6875 765.2437,666.9844 L765.2437,669.7031 Q764.6187,669.125 764.0249,668.8594 Q763.4312,668.5781 762.8062,668.5781 Q761.4624,668.5781 760.7749,669.6563 Q760.0874,670.7188 760.0874,672.8125 Q760.0874,674.9063 760.7749,675.9844 Q761.4624,677.0469 762.8062,677.0469 Q763.4312,677.0469 764.0249,676.7813 Q764.6187,676.5 765.2437,675.9219 L765.2437,678.6406 Z " fill="#000000"/><text fill="#000000" font-family="sans-serif" font-size="14" lengthAdjust="spacing" textLength="127.2988" x="782.7749" y="677.8467">NewReleaseMovie</text><line style="stroke:#A80036;stroke-width:1;" x1="660.5" x2="999.8486" y1="689" y2="689"/><rect fill="transparent" height="6" style="stroke:#C82930;stroke-width:1;" width="6" x="667.5" y="699.6484"/><text fill="#000000" font-family="sans-serif" font-size="14" lengthAdjust="spacing" text-decoration="underline" textLength="145.7217" x="679.5" y="705.9951">double CHARGE = 3;</text><rect fill="transparent" height="6" style="stroke:#C82930;stroke-width:1;" width="6" x="667.5" y="715.9453"/><text fill="#000000" font-family="sans-serif" font-size="14" lengthAdjust="spacing" text-decoration="underline" textLength="196.4648" x="679.5" y="722.292">double EXTRA CHARGE = 1;</text><rect fill="transparent" height="6" style="stroke:#C82930;stroke-width:1;" width="6" x="667.5" y="732.2422"/><text fill="#000000" font-family="sans-serif" font-size="14" lengthAdjust="spacing" text-decoration="underline" textLength="247.543" x="679.5" y="738.5889">int DAYS RENTED THRESHOLD = 2;</text><line style="stroke:#A80036;stroke-width:1;" x1="660.5" x2="999.8486" y1="745.8906" y2="745.8906"/><ellipse cx="670.5" cy="759.5391" fill="#84BE84" rx="3" ry="3" style="stroke:#038048;stroke-width:1;"/><text fill="#000000" font-family="sans-serif" font-size="14" lengthAdjust="spacing" textLength="211.8252" x="679.5" y="762.8857">NewReleaseMovie(String title)</text><ellipse cx="670.5" cy="775.8359" fill="#84BE84" rx="3" ry="3" style="stroke:#038048;stroke-width:1;"/><text fill="#000000" font-family="sans-serif" font-size="14" lengthAdjust="spacing" textLength="242.5117" x="679.5" y="779.1826">double getCharge(int daysRented)</text><ellipse cx="670.5" cy="792.1328" fill="#84BE84" rx="3" ry="3" style="stroke:#038048;stroke-width:1;"/><text fill="#000000" font-family="sans-serif" font-size="14" lengthAdjust="spacing" textLength="315.3486" x="679.5" y="795.4795">int getFrequentRenterPoints(int daysRented)</text></g><!--link Customer to Rental--><g id="link_Customer_Rental"><path codeLine="57" d="M487,181.05 C487,200.46 487,203.22 487,222.64 " fill="transparent" id="Customer-Rental" style="stroke:#A80036;stroke-width:1;"/><polygon fill="transparent" points="487,169.05,483,175.05,487,181.05,491,175.05,487,169.05" style="stroke:#A80036;stroke-width:1;"/><polygon fill="#A80036" points="487,228.64,491,219.64,487,223.64,483,219.64,487,228.64" style="stroke:#A80036;stroke-width:1;"/></g><!--link Rental to Movie--><g id="link_Rental_Movie"><path codeLine="58" d="M487,391.15 C487,410.73 487,425.56 487,444.75 " fill="transparent" id="Rental-to-Movie" style="stroke:#A80036;stroke-width:1;"/><polygon fill="#A80036" points="487,450.75,491,441.75,487,445.75,483,441.75,487,450.75" style="stroke:#A80036;stroke-width:1;"/></g><!--reverse link Movie to RegularMovie--><g id="link_Movie_RegularMovie"><path codeLine="59" d="M356.3513,606.7585 C320.8113,628.9985 297.23,643.75 262.69,665.37 " fill="transparent" id="Movie-backto-RegularMovie" style="stroke:#A80036;stroke-width:1;"/><polygon fill="transparent" points="371.61,597.21,353.1685,601.6722,359.5342,611.8447,371.61,597.21" style="stroke:#A80036;stroke-width:1;"/></g><!--reverse link Movie to ChildrenMovie--><g id="link_Movie_ChildrenMovie"><path codeLine="60" d="M487,615.21 C487,637.45 487,643.75 487,665.37 " fill="transparent" id="Movie-backto-ChildrenMovie" style="stroke:#A80036;stroke-width:1;"/><polygon fill="transparent" points="487,597.21,481,615.21,493,615.21,487,597.21" style="stroke:#A80036;stroke-width:1;"/></g><!--reverse link Movie to NewReleaseMovie--><g id="link_Movie_NewReleaseMovie"><path codeLine="61" d="M623.8808,606.4108 C656.4508,625.7808 676.19,637.52 708.75,656.89 " fill="transparent" id="Movie-backto-NewReleaseMovie" style="stroke:#A80036;stroke-width:1;"/><polygon fill="transparent" points="608.41,597.21,620.8139,611.5677,626.9477,601.2538,608.41,597.21" style="stroke:#A80036;stroke-width:1;"/></g><!--SRC=[jLJBJiCm4BpdA_RO2e8eY5C0gMe3HO9IaY312RcD2HP9B6m7L9N-EsixQTAKHq7YaiVih7TcrxPyPZa8BgdZEBEKI0c3GYgUKG4BnuLG2POda9ECUlXxoQGw3cYkI7eAmhobv-p0W4jLO4wdmUy21buvYu74iStfs5UPsSLuoK-e6cDAfm59HHJDa8YW2pOnBBACYBcchm58MLRoon9Q_1L_PHGo_TJYMQuW9dEf6JJMiajL3TvkYwK5QGGh3bUWaMcJ43SV1efvCKqDDdWY8h5WcNqcw4k1sMO5CU48IokRJAKIPAR0whVhBZ1JTu3Du97bw4SlSnRuDxV-E7e8yE473vFhYt4KmWdql7fKYgcKUfN0JXFzLEENVZzLlCck9nZf6jRJQXP9aH9HMLfOHqktKZ4OzODp7mqSxErxcs7_BWhwDQctTzGarNqPzkz3C3qPGZGA_71qVJdKgzePrnf-turbTIYUM1hZjltPIalbLbQ-Ct5epbUp_DzTZEbRG5DA9FtPn-4MBhRrO0RHAlxVEnDtuUecusxCttBtj3pmJdb7LAZHuzYM7BzRT6tVj6DhusW7Mpu_0000]--></g></svg>