<svg xmlns="http://www.w3.org/2000/svg" xmlns:xlink="http://www.w3.org/1999/xlink" contentStyleType="text/css" data-diagram-type="CLASS" height="1022px" preserveAspectRatio="none" style="width:1014px;height:1022px;background:#FFFFFF;" version="1.1" viewBox="0 0 1014 1022" width="1014px" zoomAndPan="magnify"><defs><filter height="300%" id="fo1omw8yp7jc8" width="300%" x="-1" y="-1"><feGaussianBlur result="blurOut" stdDeviation="2"/><feColorMatrix in="blurOut" result="blurOut2" type="matrix" values="0 0 0 0 0 0 0 0 0 0 0 0 0 0 0 0 0 0 .4 0"/><feOffset dx="4" dy="4" in="blurOut2" result="blurOut3"/><feBlend in="SourceGraphic" in2="blurOut3" mode="normal"/></filter></defs><g><!--class Customer--><g id="elem_Customer"><rect codeLine="3" fill="#FEFECE" filter="url(#fo1omw8yp7jc8)" height="162.0781" id="Customer" style="stroke:#A80036;stroke-width:1;" width="290.0176" x="342" y="7"/><ellipse cx="448.7568" cy="23" fill="#ADD1B2" rx="11" ry="11" style="stroke:#A80036;stroke-width:1;"/><path d="M451.7256,28.6406 Q451.1475,28.9375 450.5068,29.0781 Q449.8662,29.2344 449.1631,29.2344 Q446.6631,29.2344 445.335,27.5938 Q444.0225,25.9375 444.0225,22.8125 Q444.0225,19.6875 445.335,18.0313 Q446.6631,16.375 449.1631,16.375 Q449.8662,16.375 450.5068,16.5313 Q451.1631,16.6875 451.7256,16.9844 L451.7256,19.7031 Q451.1006,19.125 450.5068,18.8594 Q449.9131,18.5781 449.2881,18.5781 Q447.9443,18.5781 447.2568,19.6563 Q446.5693,20.7188 446.5693,22.8125 Q446.5693,24.9063 447.2568,25.9844 Q447.9443,27.0469 449.2881,27.0469 Q449.9131,27.0469 450.5068,26.7813 Q451.1006,26.5 451.7256,25.9219 L451.7256,28.6406 Z " fill="#000000"/><text fill="#000000" font-family="sans-serif" font-size="14" lengthAdjust="spacing" textLength="68.0039" x="469.2568" y="27.8467">Customer</text><line style="stroke:#A80036;stroke-width:1;" x1="343" x2="631.0176" y1="39" y2="39"/><rect fill="transparent" height="6" style="stroke:#C82930;stroke-width:1;" width="6" x="350" y="49.6484"/><text fill="#000000" font-family="sans-serif" font-size="14" lengthAdjust="spacing" textLength="90.6514" x="362" y="55.9951">String name;</text><rect fill="transparent" height="6" style="stroke:#C82930;stroke-width:1;" width="6" x="350" y="65.9453"/><text fill="#000000" font-family="sans-serif" font-size="14" lengthAdjust="spacing" textLength="150.7666" x="362" y="72.292">List&lt;Rental&gt; rentals;</text><line style="stroke:#A80036;stroke-width:1;" x1="343" x2="631.0176" y1="79.5938" y2="79.5938"/><ellipse cx="353" cy="93.2422" fill="#84BE84" rx="3" ry="3" style="stroke:#038048;stroke-width:1;"/><text fill="#000000" font-family="sans-serif" font-size="14" lengthAdjust="spacing" textLength="164.8623" x="362" y="96.5889">Costumer(String name)</text><ellipse cx="353" cy="109.5391" fill="#84BE84" rx="3" ry="3" style="stroke:#038048;stroke-width:1;"/><text fill="#000000" font-family="sans-serif" font-size="14" lengthAdjust="spacing" textLength="207.3477" x="362" y="112.8857">void addRental(Rental rental)</text><ellipse cx="353" cy="125.8359" fill="#84BE84" rx="3" ry="3" style="stroke:#038048;stroke-width:1;"/><text fill="#000000" font-family="sans-serif" font-size="14" lengthAdjust="spacing" textLength="121.4473" x="362" y="129.1826">String getName()</text><ellipse cx="353" cy="142.1328" fill="#84BE84" rx="3" ry="3" style="stroke:#038048;stroke-width:1;"/><text fill="#000000" font-family="sans-serif" font-size="14" lengthAdjust="spacing" textLength="129.2334" x="362" y="145.4795">String statement()</text><rect fill="#F24D5C" height="6" style="stroke:#C82930;stroke-width:1;" width="6" x="350" y="155.4297"/><text fill="#000000" font-family="sans-serif" font-size="14" lengthAdjust="spacing" textLength="264.0176" x="362" y="161.7764">RentalSummary getRentalSummary()</text></g><!--class Rental--><g id="elem_Rental"><rect codeLine="13" fill="#FEFECE" filter="url(#fo1omw8yp7jc8)" height="162.0781" id="Rental" style="stroke:#A80036;stroke-width:1;" width="285.8203" x="344" y="229"/><ellipse cx="460.0742" cy="245" fill="#ADD1B2" rx="11" ry="11" style="stroke:#A80036;stroke-width:1;"/><path d="M463.043,250.6406 Q462.4648,250.9375 461.8242,251.0781 Q461.1836,251.2344 460.4805,251.2344 Q457.9805,251.2344 456.6523,249.5938 Q455.3398,247.9375 455.3398,244.8125 Q455.3398,241.6875 456.6523,240.0313 Q457.9805,238.375 460.4805,238.375 Q461.1836,238.375 461.8242,238.5313 Q462.4805,238.6875 463.043,238.9844 L463.043,241.7031 Q462.418,241.125 461.8242,240.8594 Q461.2305,240.5781 460.6055,240.5781 Q459.2617,240.5781 458.5742,241.6563 Q457.8867,242.7188 457.8867,244.8125 Q457.8867,246.9063 458.5742,247.9844 Q459.2617,249.0469 460.6055,249.0469 Q461.2305,249.0469 461.8242,248.7813 Q462.418,248.5 463.043,247.9219 L463.043,250.6406 Z " fill="#000000"/><text fill="#000000" font-family="sans-serif" font-size="14" lengthAdjust="spacing" textLength="45.1719" x="480.5742" y="249.8467">Rental</text><line style="stroke:#A80036;stroke-width:1;" x1="345" x2="628.8203" y1="261" y2="261"/><rect fill="transparent" height="6" style="stroke:#C82930;stroke-width:1;" width="6" x="352" y="271.6484"/><text fill="#000000" font-family="sans-serif" font-size="14" lengthAdjust="spacing" textLength="93.5908" x="364" y="277.9951">Movie movie;</text><rect fill="transparent" height="6" style="stroke:#C82930;stroke-width:1;" width="6" x="352" y="287.9453"/><text fill="#000000" font-family="sans-serif" font-size="14" lengthAdjust="spacing" textLength="110.667" x="364" y="294.292">int daysRented;</text><line style="stroke:#A80036;stroke-width:1;" x1="345" x2="628.8203" y1="301.5938" y2="301.5938"/><ellipse cx="355" cy="315.2422" fill="#84BE84" rx="3" ry="3" style="stroke:#038048;stroke-width:1;"/><text fill="#000000" font-family="sans-serif" font-size="14" lengthAdjust="spacing" textLength="259.8203" x="364" y="318.5889">Rental(Movie movie, int daysRented)</text><ellipse cx="355" cy="331.5391" fill="#84BE84" rx="3" ry="3" style="stroke:#038048;stroke-width:1;"/><text fill="#000000" font-family="sans-serif" font-size="14" lengthAdjust="spacing" textLength="141.7568" x="364" y="334.8857">int getDaysRented()</text><ellipse cx="355" cy="347.8359" fill="#84BE84" rx="3" ry="3" style="stroke:#038048;stroke-width:1;"/><text fill="#000000" font-family="sans-serif" font-size="14" lengthAdjust="spacing" textLength="121.2285" x="364" y="351.1826">Movie getMovie()</text><ellipse cx="355" cy="364.1328" fill="#84BE84" rx="3" ry="3" style="stroke:#038048;stroke-width:1;"/><text fill="#000000" font-family="sans-serif" font-size="14" lengthAdjust="spacing" textLength="136.5615" x="364" y="367.4795">double getCharge()</text><ellipse cx="355" cy="380.4297" fill="#84BE84" rx="3" ry="3" style="stroke:#038048;stroke-width:1;"/><text fill="#000000" font-family="sans-serif" font-size="14" lengthAdjust="spacing" textLength="209.3984" x="364" y="383.7764">int getFrequentRenterPoints()</text></g><!--class Movie--><g id="elem_Movie"><rect codeLine="23" fill="#FEFECE" filter="url(#fo1omw8yp7jc8)" height="210.9688" id="Movie" style="stroke:#A80036;stroke-width:1;" width="341.3486" x="316.5" y="451"/><ellipse cx="462.208" cy="467" fill="#ADD1B2" rx="11" ry="11" style="stroke:#A80036;stroke-width:1;"/><path d="M465.1768,472.6406 Q464.5986,472.9375 463.958,473.0781 Q463.3174,473.2344 462.6143,473.2344 Q460.1143,473.2344 458.7861,471.5938 Q457.4736,469.9375 457.4736,466.8125 Q457.4736,463.6875 458.7861,462.0313 Q460.1143,460.375 462.6143,460.375 Q463.3174,460.375 463.958,460.5313 Q464.6143,460.6875 465.1768,460.9844 L465.1768,463.7031 Q464.5518,463.125 463.958,462.8594 Q463.3643,462.5781 462.7393,462.5781 Q461.3955,462.5781 460.708,463.6563 Q460.0205,464.7188 460.0205,466.8125 Q460.0205,468.9063 460.708,469.9844 Q461.3955,471.0469 462.7393,471.0469 Q463.3643,471.0469 463.958,470.7813 Q464.5518,470.5 465.1768,469.9219 L465.1768,472.6406 Z " fill="#000000"/><text fill="#000000" font-family="sans-serif" font-size="14" lengthAdjust="spacing" textLength="41.4326" x="482.708" y="471.8467">Movie</text><line style="stroke:#A80036;stroke-width:1;" x1="317.5" x2="656.8486" y1="483" y2="483"/><ellipse cx="327.5" cy="496.6484" fill="transparent" rx="3" ry="3" style="stroke:#038048;stroke-width:1;"/><text fill="#000000" font-family="sans-serif" font-size="14" lengthAdjust="spacing" textLength="201.2295" x="336.5" y="499.9951">static final int REGULAR = 0;</text><ellipse cx="327.5" cy="512.9453" fill="transparent" rx="3" ry="3" style="stroke:#038048;stroke-width:1;"/><text fill="#000000" font-family="sans-serif" font-size="14" lengthAdjust="spacing" textLength="237.1455" x="336.5" y="516.292">static final int NEW_RELEASE = 1;</text><ellipse cx="327.5" cy="529.2422" fill="transparent" rx="3" ry="3" style="stroke:#038048;stroke-width:1;"/><text fill="#000000" font-family="sans-serif" font-size="14" lengthAdjust="spacing" textLength="215.4004" x="336.5" y="532.5889">static final int CHILDRENS = 2;</text><rect fill="transparent" height="6" style="stroke:#C82930;stroke-width:1;" width="6" x="324.5" y="542.5391"/><text fill="#000000" font-family="sans-serif" font-size="14" lengthAdjust="spacing" textLength="78.3193" x="336.5" y="548.8857">String title;</text><rect fill="transparent" height="6" style="stroke:#C82930;stroke-width:1;" width="6" x="324.5" y="558.8359"/><text fill="#000000" font-family="sans-serif" font-size="14" lengthAdjust="spacing" textLength="78.4082" x="336.5" y="565.1826">Price price;</text><line style="stroke:#A80036;stroke-width:1;" x1="317.5" x2="656.8486" y1="572.4844" y2="572.4844"/><ellipse cx="327.5" cy="586.1328" fill="#84BE84" rx="3" ry="3" style="stroke:#038048;stroke-width:1;"/><text fill="#000000" font-family="sans-serif" font-size="14" lengthAdjust="spacing" textLength="228.2451" x="336.5" y="589.4795">Movie(String title, int priceCode)</text><ellipse cx="327.5" cy="602.4297" fill="#84BE84" rx="3" ry="3" style="stroke:#038048;stroke-width:1;"/><text fill="#000000" font-family="sans-serif" font-size="14" lengthAdjust="spacing" textLength="242.5117" x="336.5" y="605.7764">double getCharge(int daysRented)</text><ellipse cx="327.5" cy="618.7266" fill="#84BE84" rx="3" ry="3" style="stroke:#038048;stroke-width:1;"/><text fill="#000000" font-family="sans-serif" font-size="14" lengthAdjust="spacing" textLength="315.3486" x="336.5" y="622.0732">int getFrequentRenterPoints(int daysRented)</text><ellipse cx="327.5" cy="635.0234" fill="#84BE84" rx="3" ry="3" style="stroke:#038048;stroke-width:1;"/><text fill="#000000" font-family="sans-serif" font-size="14" lengthAdjust="spacing" textLength="230.0225" x="336.5" y="638.3701">void setPriceCode(int priceCode)</text><ellipse cx="327.5" cy="651.3203" fill="#84BE84" rx="3" ry="3" style="stroke:#038048;stroke-width:1;"/><text fill="#000000" font-family="sans-serif" font-size="14" lengthAdjust="spacing" textLength="110.5781" x="336.5" y="654.667">String getTitle()</text></g><!--class Price--><g id="elem_Price"><rect codeLine="36" fill="#FEFECE" filter="url(#fo1omw8yp7jc8)" height="96.8906" id="Price" style="stroke:#A80036;stroke-width:1;" width="341.3486" x="316.5" y="722"/><ellipse cx="465.7251" cy="738" fill="#ADD1B2" rx="11" ry="11" style="stroke:#A80036;stroke-width:1;"/><path d="M468.6938,743.6406 Q468.1157,743.9375 467.4751,744.0781 Q466.8345,744.2344 466.1313,744.2344 Q463.6313,744.2344 462.3032,742.5938 Q460.9907,740.9375 460.9907,737.8125 Q460.9907,734.6875 462.3032,733.0313 Q463.6313,731.375 466.1313,731.375 Q466.8345,731.375 467.4751,731.5313 Q468.1313,731.6875 468.6938,731.9844 L468.6938,734.7031 Q468.0688,734.125 467.4751,733.8594 Q466.8813,733.5781 466.2563,733.5781 Q464.9126,733.5781 464.2251,734.6563 Q463.5376,735.7188 463.5376,737.8125 Q463.5376,739.9063 464.2251,740.9844 Q464.9126,742.0469 466.2563,742.0469 Q466.8813,742.0469 467.4751,741.7813 Q468.0688,741.5 468.6938,740.9219 L468.6938,743.6406 Z " fill="#000000"/><text fill="#000000" font-family="sans-serif" font-size="14" lengthAdjust="spacing" textLength="34.3984" x="486.2251" y="742.8467">Price</text><line style="stroke:#A80036;stroke-width:1;" x1="317.5" x2="656.8486" y1="754" y2="754"/><line style="stroke:#A80036;stroke-width:1;" x1="317.5" x2="656.8486" y1="762" y2="762"/><ellipse cx="327.5" cy="775.6484" fill="#84BE84" rx="3" ry="3" style="stroke:#038048;stroke-width:1;"/><text fill="#000000" font-family="sans-serif" font-size="14" lengthAdjust="spacing" textLength="126.8545" x="336.5" y="778.9951">int getPriceCode()</text><ellipse cx="327.5" cy="791.9453" fill="#84BE84" rx="3" ry="3" style="stroke:#038048;stroke-width:1;"/><text fill="#000000" font-family="sans-serif" font-size="14" lengthAdjust="spacing" textLength="242.5117" x="336.5" y="795.292">double getCharge(int daysRented)</text><ellipse cx="327.5" cy="808.2422" fill="#84BE84" rx="3" ry="3" style="stroke:#038048;stroke-width:1;"/><text fill="#000000" font-family="sans-serif" font-size="14" lengthAdjust="spacing" textLength="315.3486" x="336.5" y="811.5889">int getFrequentRenterPoints(int daysRented)</text></g><!--class RegularPrice--><g id="elem_RegularPrice"><rect codeLine="41" fill="#FEFECE" filter="url(#fo1omw8yp7jc8)" height="113.1875" id="RegularPrice" style="stroke:#A80036;stroke-width:1;" width="308.1533" x="7" y="887"/><ellipse cx="112.4648" cy="903" fill="#ADD1B2" rx="11" ry="11" style="stroke:#A80036;stroke-width:1;"/><path d="M115.4336,908.6406 Q114.8555,908.9375 114.2148,909.0781 Q113.5742,909.2344 112.8711,909.2344 Q110.3711,909.2344 109.043,907.5938 Q107.7305,905.9375 107.7305,902.8125 Q107.7305,899.6875 109.043,898.0313 Q110.3711,896.375 112.8711,896.375 Q113.5742,896.375 114.2148,896.5313 Q114.8711,896.6875 115.4336,896.9844 L115.4336,899.7031 Q114.8086,899.125 114.2148,898.8594 Q113.6211,898.5781 112.9961,898.5781 Q111.6523,898.5781 110.9648,899.6563 Q110.2773,900.7188 110.2773,902.8125 Q110.2773,904.9063 110.9648,905.9844 Q111.6523,907.0469 112.9961,907.0469 Q113.6211,907.0469 114.2148,906.7813 Q114.8086,906.5 115.4336,905.9219 L115.4336,908.6406 Z " fill="#000000"/><text fill="#000000" font-family="sans-serif" font-size="14" lengthAdjust="spacing" textLength="88.7236" x="132.9648" y="907.8467">RegularPrice</text><line style="stroke:#A80036;stroke-width:1;" x1="8" x2="314.1533" y1="919" y2="919"/><rect fill="transparent" height="6" style="stroke:#C82930;stroke-width:1;" width="6" x="15" y="929.6484"/><text fill="#000000" font-family="sans-serif" font-size="14" lengthAdjust="spacing" text-decoration="underline" textLength="159.0791" x="27" y="935.9951">double CHARGE = 2.0;</text><rect fill="transparent" height="6" style="stroke:#C82930;stroke-width:1;" width="6" x="15" y="945.9453"/><text fill="#000000" font-family="sans-serif" font-size="14" lengthAdjust="spacing" text-decoration="underline" textLength="209.8223" x="27" y="952.292">double EXTRA CHARGE = 1.5;</text><rect fill="transparent" height="6" style="stroke:#C82930;stroke-width:1;" width="6" x="15" y="962.2422"/><text fill="#000000" font-family="sans-serif" font-size="14" lengthAdjust="spacing" text-decoration="underline" textLength="282.1533" x="27" y="968.5889">final int DAYS RENTED THRESHOLD = 2;</text><line style="stroke:#A80036;stroke-width:1;" x1="8" x2="314.1533" y1="975.8906" y2="975.8906"/><ellipse cx="18" cy="989.5391" fill="#84BE84" rx="3" ry="3" style="stroke:#038048;stroke-width:1;"/><text fill="#000000" font-family="sans-serif" font-size="14" lengthAdjust="spacing" textLength="242.5117" x="27" y="992.8857">double getCharge(int daysRented)</text></g><!--class ChildrenPrice--><g id="elem_ChildrenPrice"><rect codeLine="47" fill="#FEFECE" filter="url(#fo1omw8yp7jc8)" height="113.1875" id="ChildrenPrice" style="stroke:#A80036;stroke-width:1;" width="273.543" x="350" y="887"/><ellipse cx="436.0439" cy="903" fill="#ADD1B2" rx="11" ry="11" style="stroke:#A80036;stroke-width:1;"/><path d="M439.0127,908.6406 Q438.4346,908.9375 437.7939,909.0781 Q437.1533,909.2344 436.4502,909.2344 Q433.9502,909.2344 432.6221,907.5938 Q431.3096,905.9375 431.3096,902.8125 Q431.3096,899.6875 432.6221,898.0313 Q433.9502,896.375 436.4502,896.375 Q437.1533,896.375 437.7939,896.5313 Q438.4502,896.6875 439.0127,896.9844 L439.0127,899.7031 Q438.3877,899.125 437.7939,898.8594 Q437.2002,898.5781 436.5752,898.5781 Q435.2314,898.5781 434.5439,899.6563 Q433.8564,900.7188 433.8564,902.8125 Q433.8564,904.9063 434.5439,905.9844 Q435.2314,907.0469 436.5752,907.0469 Q437.2002,907.0469 437.7939,906.7813 Q438.3877,906.5 439.0127,905.9219 L439.0127,908.6406 Z " fill="#000000"/><text fill="#000000" font-family="sans-serif" font-size="14" lengthAdjust="spacing" textLength="92.9551" x="456.5439" y="907.8467">ChildrenPrice</text><line style="stroke:#A80036;stroke-width:1;" x1="351" x2="622.543" y1="919" y2="919"/><rect fill="transparent" height="6" style="stroke:#C82930;stroke-width:1;" width="6" x="358" y="929.6484"/><text fill="#000000" font-family="sans-serif" font-size="14" lengthAdjust="spacing" text-decoration="underline" textLength="159.0791" x="370" y="935.9951">double CHARGE = 1.5;</text><rect fill="transparent" height="6" style="stroke:#C82930;stroke-width:1;" width="6" x="358" y="945.9453"/><text fill="#000000" font-family="sans-serif" font-size="14" lengthAdjust="spacing" text-decoration="underline" textLength="209.8223" x="370" y="952.292">double EXTRA CHARGE = 1.5;</text><rect fill="transparent" height="6" style="stroke:#C82930;stroke-width:1;" width="6" x="358" y="962.2422"/><text fill="#000000" font-family="sans-serif" font-size="14" lengthAdjust="spacing" text-decoration="underline" textLength="247.543" x="370" y="968.5889">int DAYS RENTED THRESHOLD = 3;</text><line style="stroke:#A80036;stroke-width:1;" x1="351" x2="622.543" y1="975.8906" y2="975.8906"/><ellipse cx="361" cy="989.5391" fill="#84BE84" rx="3" ry="3" style="stroke:#038048;stroke-width:1;"/><text fill="#000000" font-family="sans-serif" font-size="14" lengthAdjust="spacing" textLength="242.5117" x="370" y="992.8857">double getCharge(int daysRented)</text></g><!--class NewReleasePrice--><g id="elem_NewReleasePrice"><rect codeLine="53" fill="#FEFECE" filter="url(#fo1omw8yp7jc8)" height="129.4844" id="NewReleasePrice" style="stroke:#A80036;stroke-width:1;" width="341.3486" x="659.5" y="879"/><ellipse cx="765.792" cy="895" fill="#ADD1B2" rx="11" ry="11" style="stroke:#A80036;stroke-width:1;"/><path d="M768.7607,900.6406 Q768.1826,900.9375 767.542,901.0781 Q766.9014,901.2344 766.1982,901.2344 Q763.6982,901.2344 762.3701,899.5938 Q761.0576,897.9375 761.0576,894.8125 Q761.0576,891.6875 762.3701,890.0313 Q763.6982,888.375 766.1982,888.375 Q766.9014,888.375 767.542,888.5313 Q768.1982,888.6875 768.7607,888.9844 L768.7607,891.7031 Q768.1357,891.125 767.542,890.8594 Q766.9482,890.5781 766.3232,890.5781 Q764.9795,890.5781 764.292,891.6563 Q763.6045,892.7188 763.6045,894.8125 Q763.6045,896.9063 764.292,897.9844 Q764.9795,899.0469 766.3232,899.0469 Q766.9482,899.0469 767.542,898.7813 Q768.1357,898.5 768.7607,897.9219 L768.7607,900.6406 Z " fill="#000000"/><text fill="#000000" font-family="sans-serif" font-size="14" lengthAdjust="spacing" textLength="120.2646" x="786.292" y="899.8467">NewReleasePrice</text><line style="stroke:#A80036;stroke-width:1;" x1="660.5" x2="999.8486" y1="911" y2="911"/><rect fill="transparent" height="6" style="stroke:#C82930;stroke-width:1;" width="6" x="667.5" y="921.6484"/><text fill="#000000" font-family="sans-serif" font-size="14" lengthAdjust="spacing" text-decoration="underline" textLength="145.7217" x="679.5" y="927.9951">double CHARGE = 3;</text><rect fill="transparent" height="6" style="stroke:#C82930;stroke-width:1;" width="6" x="667.5" y="937.9453"/><text fill="#000000" font-family="sans-serif" font-size="14" lengthAdjust="spacing" text-decoration="underline" textLength="196.4648" x="679.5" y="944.292">double EXTRA CHARGE = 1;</text><rect fill="transparent" height="6" style="stroke:#C82930;stroke-width:1;" width="6" x="667.5" y="954.2422"/><text fill="#000000" font-family="sans-serif" font-size="14" lengthAdjust="spacing" text-decoration="underline" textLength="247.543" x="679.5" y="960.5889">int DAYS RENTED THRESHOLD = 2;</text><line style="stroke:#A80036;stroke-width:1;" x1="660.5" x2="999.8486" y1="967.8906" y2="967.8906"/><ellipse cx="670.5" cy="981.5391" fill="#84BE84" rx="3" ry="3" style="stroke:#038048;stroke-width:1;"/><text fill="#000000" font-family="sans-serif" font-size="14" lengthAdjust="spacing" textLength="242.5117" x="679.5" y="984.8857">double getCharge(int daysRented)</text><ellipse cx="670.5" cy="997.8359" fill="#84BE84" rx="3" ry="3" style="stroke:#038048;stroke-width:1;"/><text fill="#000000" font-family="sans-serif" font-size="14" lengthAdjust="spacing" textLength="315.3486" x="679.5" y="1001.1826">int getFrequentRenterPoints(int daysRented)</text></g><!--link Customer to Rental--><g id="link_Customer_Rental"><path codeLine="61" d="M487,181.05 C487,200.46 487,203.22 487,222.64 " fill="transparent" id="Customer-Rental" style="stroke:#A80036;stroke-width:1;"/><polygon fill="transparent" points="487,169.05,483,175.05,487,181.05,491,175.05,487,169.05" style="stroke:#A80036;stroke-width:1;"/><polygon fill="#A80036" points="487,228.64,491,219.64,487,223.64,483,219.64,487,228.64" style="stroke:#A80036;stroke-width:1;"/></g><!--link Rental to Movie--><g id="link_Rental_Movie"><path codeLine="62" d="M487,391.06 C487,410.14 487,424.78 487,444.78 " fill="transparent" id="Rental-to-Movie" style="stroke:#A80036;stroke-width:1;"/><polygon fill="#A80036" points="487,450.78,491,441.78,487,445.78,483,441.78,487,450.78" style="stroke:#A80036;stroke-width:1;"/></g><!--reverse link Movie to Price--><g id="link_Movie_Price"><path codeLine="63" d="M487,674.26 C487,695.12 487,704.05 487,721.81 " fill="transparent" id="Movie-backto-Price" style="stroke:#A80036;stroke-width:1;"/><polygon fill="#A80036" points="487,662.26,483,668.26,487,674.26,491,668.26,487,662.26" style="stroke:#A80036;stroke-width:1;"/></g><!--reverse link Price to RegularPrice--><g id="link_Price_RegularPrice"><path codeLine="64" d="M380.2499,827.4913 C340.1199,848.5413 308.62,865.07 266.89,886.96 " fill="transparent" id="Price-backto-RegularPrice" style="stroke:#A80036;stroke-width:1;"/><polygon fill="transparent" points="396.19,819.13,377.4627,822.1779,383.037,832.8047,396.19,819.13" style="stroke:#A80036;stroke-width:1;"/></g><!--reverse link Price to ChildrenPrice--><g id="link_Price_ChildrenPrice"><path codeLine="65" d="M487,837.13 C487,858.18 487,865.07 487,886.96 " fill="transparent" id="Price-backto-ChildrenPrice" style="stroke:#A80036;stroke-width:1;"/><polygon fill="transparent" points="487,819.13,481,837.13,493,837.13,487,819.13" style="stroke:#A80036;stroke-width:1;"/></g><!--reverse link Price to NewReleasePrice--><g id="link_Price_NewReleasePrice"><path codeLine="66" d="M598.6492,827.1608 C635.8192,845.6908 662.84,859.17 702.59,878.98 " fill="transparent" id="Price-backto-NewReleasePrice" style="stroke:#A80036;stroke-width:1;"/><polygon fill="transparent" points="582.54,819.13,595.9723,832.5305,601.3261,821.791,582.54,819.13" style="stroke:#A80036;stroke-width:1;"/></g><!--SRC=[jLHTRzCm57tFh_1Z1cHYctZAc1GbPaKAeNAAW2TaQjDP937OpgQfwt_dsawQB2qiU-0bQSyzn_VSZrZ_50rIKlCWM5TKQvIssiYQAxGD8bGQ9PeDQcZDO_YR2sqk2MyChQwGScyT1ozHAhLfGHEE-2S80hTIC4GPyvhGlphb2SGx_eQR0YJX2DA66bu34S08UM7PrZLLzvR-203AhhVVfR3cFyXRmL5jdzQyQ0nYz5vR1cVMTkTgn7irOLb35e6CsHvqDhq8SFV3GKostok7fJTKRJpOgTyf_hi5jJj1BIN0UcpR7xS5WIrShD4FqK0PLatmzQSy8UWjUXqVYnVuypU2SvoK63XdHpdfudsU4LoKm3YFXy4QOIhNdAKIQuv-sMVSLnUEIRupZf1Ane_M-zVU7Qt-aEssHNEpxBE41pc7XLbPL-CM-XAsGzRXcF_WThVVjqrRKTKdt_hMxw8-Nxf8oBKTpFafZEyWZB-iI3AGpaxVZ4d30BFaQmcRKAnmXbOBWil5npppmvnHMcyslH4LWw_lQRSJ8xFS_ildnRDy5loEy8fJpPzsUZ73vroNyxhvt4K9zbUgZ9YyQwAhxkO9kikgHzrN5_Yhu8K7_LO7lWsN3nquNhffxD6Cfy59O_y0]--></g></svg>